<svg width="50" height="50" viewBox="0 0 50 50" fill="none" xmlns="http://www.w3.org/2000/svg">
<path d="M49 25C49 38.2548 38.2548 49 25 49C11.7452 49 1 38.2548 1 25C1 11.7452 11.7452 1 25 1C38.2548 1 49 11.7452 49 25Z" fill="white" stroke="#141414" stroke-width="2"/>
<path d="M24.8659 6.35986L24.6172 7.20463V31.7157L24.8659 31.9638L36.2434 25.2384L24.8659 6.35986Z" fill="#343434"/>
<path d="M24.8817 6.35864L13.5039 25.2372L24.8817 31.9626V20.0656V6.35864Z" fill="#8C8C8C"/>
<path d="M24.8667 34.1149L24.7266 34.2859V43.0171L24.8667 43.4263L36.2512 27.3931L24.8667 34.1149Z" fill="#3C3C3B"/>
<path d="M24.8817 43.4261V34.1148L13.5039 27.3929L24.8817 43.4261Z" fill="#8C8C8C"/>
<path d="M24.8711 31.9578L36.2486 25.2324L24.8711 20.0608V31.9578Z" fill="#141414"/>
<path d="M13.5039 25.2323L24.8817 31.9577V20.0607L13.5039 25.2323Z" fill="#393939"/>
</svg>
