<svg width="67" height="108" viewBox="0 0 67 108" fill="none" xmlns="http://www.w3.org/2000/svg">
<g style="mix-blend-mode:hard-light" opacity="0.6">
<path d="M33.0909 0.0090332L32.3721 2.45079V73.2987L33.0909 74.0159L65.9771 54.5766L33.0909 0.0090332Z" fill="#343434"/>
<path d="M33.1399 0.00537109L0.25293 54.573L33.1399 74.0123V39.6246V0.00537109Z" fill="#8C8C8C"/>
<path d="M33.0966 80.2336L32.6914 80.7276V105.965L33.0966 107.147L66.0028 60.8043L33.0966 80.2336Z" fill="#3C3C3B"/>
<path d="M33.1399 107.147V80.2331L0.25293 60.8038L33.1399 107.147Z" fill="#8C8C8C"/>
<path d="M33.1133 73.9985L65.9995 54.5592L33.1133 39.6108V73.9985Z" fill="#141414"/>
<path d="M0.25293 54.5589L33.1399 73.9982V39.6106L0.25293 54.5589Z" fill="#393939"/>
</g>
<path d="M57 55C57 68.2548 46.2548 79 33 79C19.7452 79 9 68.2548 9 55C9 41.7452 19.7452 31 33 31C46.2548 31 57 41.7452 57 55Z" fill="white" stroke="#141414" stroke-width="2"/>
<path d="M32.8639 36.3599L32.6152 37.2046V61.7157L32.8639 61.9638L44.2415 55.2384L32.8639 36.3599Z" fill="#343434"/>
<path d="M32.8807 36.3586L21.5029 55.2372L32.8807 61.9626V50.0656V36.3586Z" fill="#8C8C8C"/>
<path d="M32.8658 64.1149L32.7256 64.2859V73.0171L32.8658 73.4263L44.2502 57.3931L32.8658 64.1149Z" fill="#3C3C3B"/>
<path d="M32.8807 73.4261V64.1148L21.5029 57.3929L32.8807 73.4261Z" fill="#8C8C8C"/>
<path d="M32.8711 61.9578L44.2486 55.2324L32.8711 50.0608V61.9578Z" fill="#141414"/>
<path d="M21.5029 55.2323L32.8807 61.9577V50.0607L21.5029 55.2323Z" fill="#393939"/>
</svg>
