<svg width="80" height="76" viewBox="0 0 80 76" fill="none" xmlns="http://www.w3.org/2000/svg">
<path d="M54.2365 45.1788C54.2365 37.5767 49.6751 34.9702 40.5524 33.8844C34.0362 33.0154 32.7329 31.2779 32.7329 28.2366C32.7329 25.1954 34.9052 23.241 39.2492 23.241C43.1589 23.241 45.3311 24.5443 46.417 27.8024C46.6344 28.454 47.286 28.8882 47.9376 28.8882H51.4126C52.2816 28.8882 52.9332 28.2366 52.9332 27.3681V27.1508C52.0642 22.372 48.1545 18.6797 43.1589 18.2454V13.0324C43.1589 12.1634 42.5073 11.5118 41.4214 11.2944H38.1633C37.2943 11.2944 36.6427 11.9461 36.4253 13.0324V18.028C29.9091 18.897 25.7825 23.241 25.7825 28.6714C25.7825 35.8392 30.1265 38.6626 39.2492 39.749C45.3311 40.8348 47.286 42.1381 47.286 45.6136C47.286 49.0891 44.2448 51.4782 40.1182 51.4782C34.4704 51.4782 32.5156 49.0885 31.8639 45.8304C31.6471 44.9619 30.9955 44.5272 30.3438 44.5272H26.651C25.7825 44.5272 25.1309 45.1788 25.1309 46.0478V46.2652C25.9993 51.695 29.4748 55.6048 36.6427 56.6912V61.9041C36.6427 62.7726 37.2943 63.4242 38.3802 63.6416H41.6383C42.5073 63.6416 43.1589 62.99 43.3763 61.9041V56.6912C49.8925 55.6048 54.2365 51.0434 54.2365 45.1788Z" fill="#555B88"/>
<path d="M28.8231 67.9857C11.8809 61.9042 3.19243 43.0071 9.49179 26.2818C12.7499 17.1591 19.9178 10.2086 28.8231 6.95047C29.6921 6.51623 30.1263 5.86461 30.1263 4.77822V1.73749C30.1263 0.868483 29.6921 0.21686 28.8231 0C28.6057 0 28.1715 -1.39202e-06 27.9541 0.216859C7.31954 6.73309 -3.97542 28.6714 2.5408 49.306C6.45054 61.4694 15.7906 70.8096 27.9541 74.7193C28.8231 75.1535 29.6921 74.7193 29.909 73.8503C30.1263 73.6334 30.1263 73.4161 30.1263 72.9818V69.9406C30.1263 69.2889 29.4747 68.4204 28.8231 67.9857ZM51.8473 0.216859C50.9783 -0.217383 50.1093 0.21686 49.8924 1.08586C49.675 1.30325 49.675 1.52011 49.675 1.95487V4.9956C49.675 5.86461 50.3266 6.73309 50.9783 7.16786C67.9204 13.2493 76.6089 32.1464 70.3096 48.8717C67.0514 57.9945 59.8836 64.9449 50.9783 68.2031C50.1093 68.6373 49.675 69.2889 49.675 70.3753V73.4161C49.675 74.2851 50.1093 74.9367 50.9783 75.1535C51.1956 75.1535 51.6299 75.1535 51.8473 74.9367C72.4818 68.4204 83.7768 46.4821 77.2606 25.8475C73.3508 13.4667 63.7933 4.1266 51.8473 0.216859Z" fill="#555B88"/>
<path d="M40 62C53.8543 62 65 50.8543 65 37C65 23.1458 53.8543 12 40 12C26.1458 12 15 23.1458 15 37C15 50.8543 26.1458 62 40 62Z" fill="#2775CA"/>
<path d="M46.8752 40.9583C46.8752 37.3125 44.6877 36.0625 40.3127 35.5418C37.1877 35.125 36.5627 34.2918 36.5627 32.8333C36.5627 31.3748 37.6045 30.4375 39.6877 30.4375C41.5627 30.4375 42.6045 31.0625 43.1252 32.625C43.2295 32.9375 43.542 33.1458 43.8545 33.1458H45.521C45.9377 33.1458 46.2502 32.8333 46.2502 32.4168V32.3125C45.8335 30.0208 43.9585 28.25 41.5627 28.0418V25.5418C41.5627 25.125 41.2502 24.8125 40.7295 24.7083H39.167C38.7502 24.7083 38.4377 25.0208 38.3335 25.5418V27.9375C35.2085 28.3543 33.2295 30.4375 33.2295 33.0418C33.2295 36.4793 35.3127 37.8333 39.6877 38.3543C42.6045 38.875 43.542 39.5 43.542 41.1668C43.542 42.8335 42.0835 43.9793 40.1045 43.9793C37.396 43.9793 36.4585 42.8333 36.146 41.2708C36.042 40.8543 35.7295 40.6458 35.417 40.6458H33.646C33.2295 40.6458 32.917 40.9583 32.917 41.375V41.4793C33.3335 44.0833 35.0002 45.9583 38.4377 46.4793V48.9793C38.4377 49.3958 38.7502 49.7083 39.271 49.8125H40.8335C41.2502 49.8125 41.5627 49.5 41.667 48.9793V46.4793C44.792 45.9583 46.8752 43.7708 46.8752 40.9583Z" fill="white"/>
<path d="M34.6876 51.8958C26.5626 48.9793 22.3958 39.9168 25.4168 31.8958C26.9793 27.5208 30.4168 24.1875 34.6876 22.625C35.1043 22.4168 35.3126 22.1043 35.3126 21.5833V20.125C35.3126 19.7082 35.1043 19.3957 34.6876 19.2917C34.5833 19.2917 34.3751 19.2917 34.2708 19.3957C24.3751 22.5208 18.9583 33.0418 22.0833 42.9375C23.9583 48.7708 28.4376 53.2501 34.2708 55.1251C34.6876 55.3333 35.1043 55.1251 35.2083 54.7083C35.3126 54.6043 35.3126 54.5001 35.3126 54.2918V52.8333C35.3126 52.5208 35.0001 52.1043 34.6876 51.8958ZM45.7294 19.3957C45.3126 19.1875 44.8959 19.3957 44.7919 19.8125C44.6876 19.9167 44.6876 20.0207 44.6876 20.2292V21.6875C44.6876 22.1043 45.0001 22.5208 45.3126 22.7293C53.4376 25.6458 57.6044 34.7083 54.5834 42.7293C53.0209 47.1043 49.5834 50.4376 45.3126 52.0001C44.8958 52.2083 44.6876 52.5208 44.6876 53.0418V54.5001C44.6876 54.9168 44.8958 55.2293 45.3126 55.3333C45.4168 55.3333 45.6251 55.3333 45.7294 55.2293C55.6251 52.1043 61.0419 41.5833 57.9169 31.6875C56.0419 25.75 51.4584 21.2708 45.7294 19.3957Z" fill="white"/>
</svg>
