<svg width="84" height="77" viewBox="0 0 84 77" fill="none" xmlns="http://www.w3.org/2000/svg">
<path fill-rule="evenodd" clip-rule="evenodd" d="M50.5024 41.7625V41.754C50.0313 41.7882 47.6027 41.9339 42.1845 41.9339C37.8586 41.9339 34.8132 41.8054 33.7424 41.754V41.7668C17.0896 41.0344 4.65985 38.1347 4.65985 34.6653C4.65985 31.2003 17.0896 28.3006 33.7424 27.5553V38.88C34.8304 38.9571 37.9485 39.1412 42.2574 39.1412C47.4271 39.1412 50.0184 38.9271 50.5024 38.8843V27.5639C67.1211 28.3049 79.5208 31.2046 79.5208 34.6653C79.5208 38.1347 67.1211 41.0258 50.5024 41.7625ZM50.5024 26.386V16.2521H73.6914V0.798462H10.5535V16.2521H33.7424V26.3817C14.8966 27.2469 0.723633 30.9818 0.723633 35.4534C0.723633 39.9251 14.8966 43.6557 33.7424 44.5252V77H50.5024V44.5166C69.3183 43.6514 83.457 39.9208 83.457 35.4534C83.457 30.9861 69.3183 27.2555 50.5024 26.386Z" fill="#A7ABC9" fill-opacity="0.15"/>
<path d="M66 38C66 51.2548 55.2548 62 42 62C28.7452 62 18 51.2548 18 38C18 24.7452 28.7452 14 42 14C55.2548 14 66 24.7452 66 38Z" fill="white" stroke="#26A17B" stroke-width="2"/>
<path fill-rule="evenodd" clip-rule="evenodd" d="M45.0041 40.1607V40.1575C44.8322 40.17 43.9463 40.2232 41.9697 40.2232C40.3916 40.2232 39.2807 40.1763 38.89 40.1575V40.1622C32.815 39.895 28.2807 38.8372 28.2807 37.5716C28.2807 36.3075 32.815 35.2497 38.89 34.9779V39.1091C39.2869 39.1372 40.4244 39.2044 41.9963 39.2044C43.8822 39.2044 44.8275 39.1263 45.0041 39.1107V34.981C51.0666 35.2513 55.59 36.3091 55.59 37.5716C55.59 38.8372 51.0666 39.8919 45.0041 40.1607ZM45.0041 34.5513V30.8544H53.4635V25.2169H30.4307V30.8544H38.89V34.5497C32.015 34.8654 26.8447 36.2279 26.8447 37.8591C26.8447 39.4904 32.015 40.8513 38.89 41.1685V53.0154H45.0041V41.1654C51.8682 40.8497 57.026 39.4888 57.026 37.8591C57.026 36.2294 51.8682 34.8685 45.0041 34.5513Z" fill="#26A17B"/>
</svg>
