<svg width="548" height="58" viewBox="0 0 548 58" fill="none" xmlns="http://www.w3.org/2000/svg">
<path d="M0 10C0 4.47715 4.47715 0 10 0H538C543.523 0 548 4.47715 548 10V58H0V10Z" fill="url(#paint0_linear)"/>
<mask id="mask0" mask-type="alpha" maskUnits="userSpaceOnUse" x="0" y="0" width="548" height="58">
<path d="M0 10C0 4.47715 4.47715 0 10 0H538C543.523 0 548 4.47715 548 10V58H0V10Z" fill="url(#paint1_linear)"/>
</mask>
<g mask="url(#mask0)">
<circle cx="567" cy="-24" r="106" fill="url(#paint2_linear)"/>
<circle cx="2" cy="-25" r="90" fill="url(#paint3_linear)"/>
</g>
<defs>
<linearGradient id="paint0_linear" x1="2.48052e-10" y1="57.9954" x2="597.982" y2="57.9955" gradientUnits="userSpaceOnUse">
<stop stop-color="#4063DD"/>
<stop offset="1" stop-color="#8CA6FF"/>
</linearGradient>
<linearGradient id="paint1_linear" x1="2.49057e-10" y1="57.9954" x2="597.982" y2="57.9955" gradientUnits="userSpaceOnUse">
<stop stop-color="#4063DD"/>
<stop offset="1" stop-color="#8CA6FF"/>
</linearGradient>
<linearGradient id="paint2_linear" x1="567" y1="-130" x2="567" y2="82" gradientUnits="userSpaceOnUse">
<stop offset="0.479167" stop-color="white" stop-opacity="0.15"/>
<stop offset="1" stop-color="#C4C4C4" stop-opacity="0"/>
</linearGradient>
<linearGradient id="paint3_linear" x1="2" y1="-115" x2="2" y2="65" gradientUnits="userSpaceOnUse">
<stop offset="0.479167" stop-color="white" stop-opacity="0.15"/>
<stop offset="1" stop-color="#C4C4C4" stop-opacity="0"/>
</linearGradient>
</defs>
</svg>
