<svg width="30" height="19" viewBox="0 0 30 19" fill="none" xmlns="http://www.w3.org/2000/svg">
<path d="M0 2.97743C0.289062 2.13968 0.953125 1.67085 1.71875 1.30962C2.5625 0.909966 3.45313 0.679394 4.36719 0.510308C6.03906 0.195192 7.73437 0.0645348 9.42969 0.102964C11.3594 0.149078 13.2656 0.32585 15.1094 0.90228C15.4141 0.994509 15.7187 1.1098 16.0078 1.23277C16.1719 1.30194 16.3047 1.30962 16.4688 1.2174C17.8828 0.448822 19.3984 0.0414776 21.0078 0.102964C24.5547 0.241307 27.2031 1.85531 28.9375 4.89118C29.5078 5.89033 29.8203 6.97402 29.9453 8.1115C29.9531 8.16531 29.9766 8.2191 30 8.27291C30 8.81091 30 9.34891 30 9.88691C29.9453 10.1867 29.8984 10.4864 29.8281 10.7861C29.0781 14.1525 27.0547 16.4505 23.7578 17.588C21.2812 18.4488 18.8438 18.1875 16.5234 16.9732C16.3203 16.8656 16.1641 16.8656 15.9609 16.9578C14.9688 17.3805 13.9297 17.6111 12.8672 17.7802C11.3828 18.0184 9.88281 18.103 8.375 18.0645C6.47656 18.0107 4.60156 17.8263 2.78125 17.2652C2.42969 17.1576 2.08594 17.0193 1.75 16.8732C0.976562 16.5197 0.304688 16.0432 0.0078125 15.1978C0.0078125 14.9826 0.0078125 14.775 0.0078125 14.5598C0.164062 14.1141 0.414062 13.7298 0.828125 13.4147C0.40625 13.1226 0.171875 12.7383 0 12.3156C0 12.1004 0 11.8929 0 11.6777C0.148438 11.2242 0.414062 10.8476 0.820312 10.5248C0.40625 10.2251 0.179688 9.8408 0 9.42577C0 9.19519 0 8.96462 0 8.73405C0.179688 8.34976 0.375 7.98853 0.710938 7.71185C0.734375 7.68879 0.726562 7.58119 0.703125 7.55813C0.367188 7.26607 0.140625 6.90484 0 6.48981C0 6.27461 0 6.0671 0 5.8519C0.15625 5.50604 0.328125 5.16018 0.632812 4.90655C0.6875 4.86044 0.734375 4.79895 0.78125 4.75284C0.617188 4.56069 0.4375 4.40698 0.3125 4.21483C0.1875 4.03038 0.101563 3.80749 0.0078125 3.59997C0 3.40015 0 3.18495 0 2.97743ZM13.1562 9.07991C13.1328 13.1533 16.4766 16.6811 20.875 16.6734C25.1797 16.6657 28.5781 13.284 28.5781 9.08759C28.5859 4.91424 25.2031 1.50945 20.8828 1.49408C16.4844 1.47871 13.1328 5.04489 13.1562 9.07991ZM14.8828 2.30108C14.7812 2.26266 14.7188 2.2396 14.6562 2.21654C13.2578 1.79383 11.8203 1.61705 10.3672 1.53251C8.99219 1.45565 7.61719 1.49408 6.25 1.64011C5.09375 1.76308 3.95312 1.95523 2.85938 2.36257C2.44531 2.51629 2.04688 2.73149 1.67969 2.97743C1.32031 3.21569 1.32812 3.39246 1.67188 3.6384C1.94531 3.83055 2.24219 4.00732 2.55469 4.13029C3.78906 4.63755 5.09375 4.85275 6.41406 4.99109C7.50781 5.10638 8.61719 5.15249 9.71875 5.09869C10.6719 5.05258 11.6172 4.93729 12.5703 4.85275C12.7656 4.83738 12.8828 4.76052 12.9688 4.58375C13.0703 4.37624 13.2109 4.19178 13.3438 3.99963C13.7812 3.37709 14.2891 2.82372 14.8828 2.30108ZM14.875 15.9048C14.5078 15.5206 14.1719 15.1747 13.8438 14.8212C13.7578 14.7289 13.6875 14.752 13.5859 14.7674C12.2656 15.0287 10.9219 15.144 9.57812 15.1824C8.25781 15.2208 6.94531 15.1363 5.64062 14.9749C4.58594 14.8442 3.53906 14.6521 2.53906 14.2908C2.28906 14.1986 2.09375 14.214 1.89062 14.3754C1.83594 14.4215 1.78125 14.4522 1.72656 14.4907C1.33594 14.7904 1.32812 14.9364 1.71875 15.2362C2.08594 15.5129 2.50781 15.6896 2.9375 15.8357C4.38281 16.3429 5.89063 16.5428 7.40625 16.6273C9.46875 16.7503 11.5234 16.658 13.5469 16.2276C13.9922 16.1354 14.4297 16.0124 14.875 15.9048ZM12.875 13.4762C12.6797 13.0381 12.4844 12.6307 12.3125 12.2157C12.2578 12.0927 12.1875 12.1004 12.0859 12.1081C11.5781 12.1619 11.0781 12.2157 10.5703 12.2464C9.08594 12.331 7.60938 12.3002 6.125 12.1465C4.92188 12.0159 3.72656 11.8237 2.58594 11.4241C2.27344 11.3165 2.04688 11.3626 1.8125 11.5393C1.76562 11.5778 1.71875 11.6085 1.67188 11.6469C1.35156 11.9083 1.34375 12.0389 1.65625 12.3002C1.74219 12.3771 1.83594 12.4463 1.94531 12.5001C2.27344 12.6615 2.60156 12.8305 2.95312 12.9535C4.45312 13.4838 6.02344 13.6683 7.60156 13.7528C8.97656 13.822 10.3516 13.7913 11.7188 13.6376C12.1016 13.5914 12.4844 13.53 12.875 13.4762ZM12.1406 6.32841C12.0781 6.32841 12.0312 6.3361 11.9844 6.3361C11.3047 6.3899 10.625 6.45907 9.94531 6.48213C8.54688 6.52824 7.15625 6.4975 5.76562 6.32073C4.70312 6.18238 3.64062 6.0133 2.63281 5.65207C2.25781 5.51372 2.00781 5.59827 1.73438 5.80578C1.67969 5.84421 1.625 5.89033 1.57812 5.93644C1.35938 6.15164 1.34375 6.26693 1.59375 6.45138C1.88281 6.6589 2.1875 6.85873 2.51562 6.99707C3.49219 7.4121 4.53906 7.61193 5.58594 7.77333C7.08594 7.99622 8.60156 8.02696 10.1094 7.98085C10.6172 7.96548 11.1172 7.91167 11.625 7.86556C11.7188 7.85787 11.8125 7.85787 11.8359 7.71953C11.9297 7.26607 12.0391 6.80493 12.1406 6.32841ZM8.89844 10.9245C9.83594 10.8707 10.7656 10.8092 11.7031 10.7554C11.8281 10.7477 11.8906 10.717 11.8672 10.5633C11.8125 10.202 11.7812 9.8408 11.75 9.47957C11.7266 9.25668 11.7266 9.26437 11.5156 9.27974C11.1484 9.31048 10.7812 9.34891 10.4062 9.36428C9.24219 9.41039 8.08594 9.40271 6.92188 9.31817C5.38281 9.20288 3.86719 8.97999 2.40625 8.46505C2.32031 8.43431 2.20312 8.42662 2.13281 8.46505C1.92969 8.58033 1.73438 8.71099 1.5625 8.86471C1.36719 9.03379 1.36719 9.14139 1.57031 9.31817C1.75 9.47188 1.95312 9.61791 2.16406 9.72551C2.88281 10.1098 3.66406 10.3096 4.45312 10.471C5.91406 10.7785 7.39844 10.8937 8.89844 10.9245Z" fill="#A7ABC9"/>
<path d="M23.5237 8.39501C23.4299 8.44113 23.344 8.48724 23.2503 8.54104C21.0706 9.77845 18.8987 11.0159 16.719 12.2533C16.5393 12.3532 16.3674 12.4531 16.1487 12.4377C15.844 12.4147 15.6331 12.2763 15.5237 11.9996C15.4143 11.7383 15.4768 11.4539 15.6877 11.2618C15.7737 11.1849 15.8752 11.1235 15.9768 11.0697C18.1565 9.83225 20.3284 8.59484 22.5081 7.35744C22.6096 7.30364 22.7034 7.24215 22.7971 7.12686C22.5237 7.12686 22.2503 7.13455 21.9768 7.12686C21.6018 7.11918 21.3362 6.91166 21.2581 6.56581C21.1721 6.19689 21.4221 5.8126 21.8049 5.75112C21.8909 5.73574 21.9768 5.73574 22.0706 5.73574C23.2034 5.73574 24.3362 5.75112 25.469 5.72806C26.1565 5.71269 26.469 6.34292 26.1409 6.87323C25.5549 7.82627 25.0081 8.79467 24.4378 9.76308C24.3128 9.97828 24.1487 10.1551 23.8831 10.1858C23.6018 10.2242 23.3596 10.1397 23.1956 9.90142C23.0315 9.67085 23.0159 9.41722 23.1565 9.17127C23.2893 8.92533 23.4299 8.68707 23.5706 8.44881C23.5471 8.42576 23.5315 8.41039 23.5237 8.39501Z" fill="#A7ABC9"/>
</svg>
