<svg width="22" height="23" viewBox="0 0 22 23" fill="none" xmlns="http://www.w3.org/2000/svg">
<g clip-path="url(#clip0)">
<path d="M14.4375 0.78186C10.7718 0.78186 6.875 1.98636 6.875 4.21936V6.96936C6.875 7.34886 7.183 7.65686 7.5625 7.65686C7.942 7.65686 8.25 7.34886 8.25 6.96936V6.25299C9.70887 7.17286 12.1179 7.65686 14.4375 7.65686C16.7571 7.65686 19.1661 7.17286 20.625 6.25299V6.96936C20.625 7.64174 18.9338 8.71424 15.7548 8.97961C15.378 9.00986 15.0961 9.34399 15.1277 9.72211C15.1566 10.081 15.4577 10.3519 15.8111 10.3519C15.8317 10.3519 15.8496 10.3505 15.8702 10.3491C17.6605 10.1992 19.4439 9.73586 20.625 8.98374V9.71936C20.625 10.3065 19.3793 11.1507 17.0679 11.5591C16.6953 11.6251 16.445 11.9826 16.511 12.3552C16.5701 12.688 16.8602 12.9231 17.1861 12.9231C17.226 12.9231 17.2673 12.9204 17.3071 12.9121C18.7055 12.666 19.8247 12.2631 20.625 11.7516V12.4694C20.625 13.0565 19.3793 13.9007 17.0679 14.3091C16.6953 14.3751 16.445 14.7326 16.511 15.1052C16.5701 15.438 16.8602 15.6731 17.1861 15.6731C17.226 15.6731 17.2673 15.6704 17.3071 15.6621C18.7055 15.416 19.8247 15.0117 20.625 14.5016V15.2194C20.625 15.8065 19.3793 16.6507 17.0679 17.0591C16.6953 17.1251 16.445 17.4826 16.511 17.8552C16.5701 18.188 16.8602 18.4231 17.1861 18.4231C17.226 18.4231 17.2673 18.4204 17.3071 18.4121C18.7055 18.166 19.8247 17.7617 20.625 17.2516V17.9694C20.625 18.6417 18.9338 19.7142 15.7548 19.9796C15.378 20.0099 15.0961 20.344 15.1277 20.7221C15.1566 21.081 15.4577 21.3519 15.8111 21.3519C15.8317 21.3519 15.8496 21.3505 15.8702 21.3491C18.9214 21.0934 22 19.9507 22 17.9694V4.21936C22 1.98636 18.1032 0.78186 14.4375 0.78186ZM14.4375 6.28186C10.6604 6.28186 8.25 5.05949 8.25 4.21936C8.25 3.37924 10.6604 2.15686 14.4375 2.15686C18.2146 2.15686 20.625 3.37924 20.625 4.21936C20.625 5.05949 18.2146 6.28186 14.4375 6.28186Z" fill="#A7ABC9"/>
<path d="M7.5625 9.03186C3.89675 9.03186 0 10.2364 0 12.4694V17.9694C0 20.2024 3.89675 21.4069 7.5625 21.4069C11.2282 21.4069 15.125 20.2024 15.125 17.9694V12.4694C15.125 10.2364 11.2282 9.03186 7.5625 9.03186ZM13.75 17.9694C13.75 18.8095 11.3396 20.0319 7.5625 20.0319C3.78538 20.0319 1.375 18.8095 1.375 17.9694V17.253C2.83387 18.1729 5.24288 18.6569 7.5625 18.6569C9.88212 18.6569 12.2911 18.1729 13.75 17.253V17.9694ZM13.75 15.2194C13.75 16.0595 11.3396 17.2819 7.5625 17.2819C3.78538 17.2819 1.375 16.0595 1.375 15.2194V14.503C2.83387 15.4229 5.24288 15.9069 7.5625 15.9069C9.88212 15.9069 12.2911 15.4229 13.75 14.503V15.2194ZM7.5625 14.5319C3.78538 14.5319 1.375 13.3095 1.375 12.4694C1.375 11.6292 3.78538 10.4069 7.5625 10.4069C11.3396 10.4069 13.75 11.6292 13.75 12.4694C13.75 13.3095 11.3396 14.5319 7.5625 14.5319Z" fill="#A7ABC9"/>
</g>
<defs>
<clipPath id="clip0">
<rect width="22" height="22" fill="white" transform="translate(0 0.0943604)"/>
</clipPath>
</defs>
</svg>
