<svg width="30" height="19" viewBox="0 0 30 19" fill="none" xmlns="http://www.w3.org/2000/svg">
<path d="M9.6 5.09436C9.6 4.76299 9.33137 4.49436 9 4.49436C8.66863 4.49436 8.4 4.76299 8.4 5.09436L9.6 5.09436ZM8.57574 13.5186C8.81005 13.7529 9.18995 13.7529 9.42426 13.5186L13.2426 9.70025C13.477 9.46593 13.477 9.08603 13.2426 8.85172C13.0083 8.6174 12.6284 8.6174 12.3941 8.85172L9 12.2458L5.60589 8.85172C5.37157 8.61741 4.99167 8.61741 4.75736 8.85172C4.52304 9.08603 4.52304 9.46593 4.75736 9.70025L8.57574 13.5186ZM8.4 5.09436L8.4 13.0944L9.6 13.0944L9.6 5.09436L8.4 5.09436Z" fill="#7896FF"/>
<path d="M30 2.97535C29.7109 2.13761 29.0469 1.66878 28.2812 1.30755C27.4375 0.907891 26.5469 0.677319 25.6328 0.508233C23.9609 0.193117 22.2656 0.0624596 20.5703 0.100888C18.6406 0.147003 16.7344 0.323775 14.8906 0.900205C14.5859 0.992434 14.2813 1.10772 13.9922 1.23069C13.8281 1.29986 13.6953 1.30755 13.5312 1.21532C12.1172 0.446747 10.6016 0.0394024 8.99219 0.100888C5.44531 0.239232 2.79688 1.85324 1.0625 4.8891C0.492188 5.88825 0.179689 6.97194 0.0546875 8.10943C0.046875 8.16323 0.0234375 8.21703 0 8.27083C0 8.80883 0 9.34683 0 9.88484C0.0546875 10.1846 0.101564 10.4843 0.171875 10.7841C0.921877 14.1504 2.94531 16.4485 6.24219 17.5859C8.71875 18.4467 11.1562 18.1854 13.4766 16.9711C13.6797 16.8635 13.8359 16.8635 14.0391 16.9557C15.0312 17.3784 16.0703 17.609 17.1328 17.7781C18.6172 18.0163 20.1172 18.1009 21.625 18.0625C23.5234 18.0087 25.3984 17.8242 27.2188 17.2631C27.5703 17.1555 27.9141 17.0172 28.25 16.8712C29.0234 16.5176 29.6953 16.0411 29.9922 15.1957C29.9922 14.9805 29.9922 14.773 29.9922 14.5578C29.8359 14.112 29.5859 13.7277 29.1719 13.4126C29.5937 13.1205 29.8281 12.7362 30 12.3135C30 12.0983 30 11.8908 30 11.6756C29.8516 11.2222 29.5859 10.8456 29.1797 10.5228C29.5938 10.223 29.8203 9.83872 30 9.42369C30 9.19312 30 8.96255 30 8.73197C29.8203 8.34769 29.625 7.98646 29.2891 7.70977C29.2656 7.68671 29.2734 7.57911 29.2969 7.55606C29.6328 7.264 29.8594 6.90277 30 6.48774C30 6.27254 30 6.06502 30 5.84982C29.8438 5.50396 29.6719 5.1581 29.3672 4.90448C29.3125 4.85836 29.2656 4.79688 29.2188 4.75076C29.3828 4.55862 29.5625 4.4049 29.6875 4.21276C29.8125 4.0283 29.8984 3.80541 29.9922 3.5979C30 3.39807 30 3.18287 30 2.97535ZM16.8438 9.07783C16.8672 13.1513 13.5234 16.679 9.125 16.6713C4.82031 16.6637 1.42188 13.2819 1.42188 9.08552C1.41406 4.91216 4.79688 1.50738 9.11719 1.49201C13.5156 1.47664 16.8672 5.04282 16.8438 9.07783ZM15.1172 2.29901C15.2188 2.26058 15.2812 2.23752 15.3438 2.21447C16.7422 1.79175 18.1797 1.61498 19.6328 1.53044C21.0078 1.45358 22.3828 1.49201 23.75 1.63804C24.9062 1.76101 26.0469 1.95315 27.1406 2.3605C27.5547 2.51421 27.9531 2.72941 28.3203 2.97535C28.6797 3.21361 28.6719 3.39038 28.3281 3.63633C28.0547 3.82847 27.7578 4.00524 27.4453 4.12822C26.2109 4.63547 24.9062 4.85068 23.5859 4.98902C22.4922 5.1043 21.3828 5.15042 20.2812 5.09662C19.3281 5.0505 18.3828 4.93522 17.4297 4.85068C17.2344 4.8353 17.1172 4.75845 17.0312 4.58167C16.9297 4.37416 16.7891 4.1897 16.6562 3.99756C16.2188 3.37501 15.7109 2.82164 15.1172 2.29901ZM15.125 15.9028C15.4922 15.5185 15.8281 15.1726 16.1562 14.8191C16.2422 14.7269 16.3125 14.7499 16.4141 14.7653C17.7344 15.0266 19.0781 15.1419 20.4219 15.1803C21.7422 15.2187 23.0547 15.1342 24.3594 14.9728C25.4141 14.8421 26.4609 14.65 27.4609 14.2888C27.7109 14.1965 27.9062 14.2119 28.1094 14.3733C28.1641 14.4194 28.2188 14.4502 28.2734 14.4886C28.6641 14.7883 28.6719 14.9344 28.2812 15.2341C27.9141 15.5108 27.4922 15.6876 27.0625 15.8336C25.6172 16.3409 24.1094 16.5407 22.5938 16.6252C20.5312 16.7482 18.4766 16.656 16.4531 16.2256C16.0078 16.1333 15.5703 16.0104 15.125 15.9028ZM17.125 13.4741C17.3203 13.036 17.5156 12.6286 17.6875 12.2136C17.7422 12.0906 17.8125 12.0983 17.9141 12.106C18.4219 12.1598 18.9219 12.2136 19.4297 12.2444C20.9141 12.3289 22.3906 12.2982 23.875 12.1444C25.0781 12.0138 26.2734 11.8216 27.4141 11.422C27.7266 11.3144 27.9531 11.3605 28.1875 11.5373C28.2344 11.5757 28.2812 11.6064 28.3281 11.6449C28.6484 11.9062 28.6562 12.0368 28.3438 12.2982C28.2578 12.375 28.1641 12.4442 28.0547 12.498C27.7266 12.6594 27.3984 12.8285 27.0469 12.9514C25.5469 13.4818 23.9766 13.6662 22.3984 13.7508C21.0234 13.8199 19.6484 13.7892 18.2812 13.6355C17.8984 13.5894 17.5156 13.5279 17.125 13.4741ZM17.8594 6.32634C17.9219 6.32634 17.9688 6.33402 18.0156 6.33402C18.6953 6.38782 19.375 6.457 20.0547 6.48005C21.4531 6.52617 22.8438 6.49542 24.2344 6.31865C25.2969 6.18031 26.3594 6.01122 27.3672 5.64999C27.7422 5.51165 27.9922 5.59619 28.2656 5.80371C28.3203 5.84214 28.375 5.88825 28.4219 5.93436C28.6406 6.14957 28.6562 6.26485 28.4062 6.44931C28.1172 6.65682 27.8125 6.85665 27.4844 6.995C26.5078 7.41003 25.4609 7.60986 24.4141 7.77126C22.9141 7.99414 21.3984 8.02489 19.8906 7.97877C19.3828 7.9634 18.8828 7.9096 18.375 7.86349C18.2812 7.8558 18.1875 7.8558 18.1641 7.71746C18.0703 7.264 17.9609 6.80285 17.8594 6.32634ZM21.1016 10.9224C20.1641 10.8686 19.2344 10.8071 18.2969 10.7533C18.1719 10.7456 18.1094 10.7149 18.1328 10.5612C18.1875 10.2 18.2188 9.83872 18.25 9.47749C18.2734 9.2546 18.2734 9.26229 18.4844 9.27766C18.8516 9.3084 19.2188 9.34683 19.5938 9.3622C20.7578 9.40832 21.9141 9.40063 23.0781 9.31609C24.6172 9.2008 26.1328 8.97792 27.5938 8.46297C27.6797 8.43223 27.7969 8.42454 27.8672 8.46297C28.0703 8.57826 28.2656 8.70892 28.4375 8.86263C28.6328 9.03172 28.6328 9.13932 28.4297 9.31609C28.25 9.4698 28.0469 9.61583 27.8359 9.72343C27.1172 10.1077 26.3359 10.3076 25.5469 10.469C24.0859 10.7764 22.6016 10.8917 21.1016 10.9224Z" fill="#7896FF"/>
</svg>
