<svg width="24" height="23" viewBox="0 0 24 23" fill="none" xmlns="http://www.w3.org/2000/svg">
<path d="M5.70516 2.91938L6.375 2.24953L5.70516 2.91938ZM5.70516 2.91938H5.40516V3.21938L5.61729 3.43151L5.82942 3.21938H18.75C21.645 3.21938 24 5.57438 24 8.46938C24 9.08953 23.4952 9.59438 22.875 9.59438H22.125C21.5048 9.59438 21 9.08953 21 8.46938C21 7.22859 19.9908 6.21938 18.75 6.21938H5.82942L5.61729 6.00724L5.40516 6.21938V6.51938H5.70516L6.375 7.18922C6.6675 7.48125 6.6675 7.9575 6.375 8.24953L5.40516 9.21938C5.11312 9.51188 4.63688 9.51188 4.34484 9.21938L5.70516 2.91938ZM4.55715 9.00741L4.55696 9.00723L0.322159 4.7729C0.322109 4.77285 0.322059 4.7728 0.32201 4.77275C0.292663 4.74314 0.292663 4.69561 0.32201 4.666C0.322059 4.66595 0.322109 4.6659 0.322159 4.66585L4.55696 0.431519L4.55715 0.431337C4.73198 0.256221 5.01802 0.256221 5.19285 0.431337L5.19302 0.431507L6.16287 1.40135L6.16304 1.40152C6.33815 1.57636 6.33815 1.86239 6.16304 2.03723L6.16287 2.0374L5.19302 3.00724L4.68089 3.51938H5.40516H18.75C21.4793 3.51938 23.7 5.74006 23.7 8.46938C23.7 8.92385 23.3295 9.29438 22.875 9.29438H22.125C21.6705 9.29438 21.3 8.92385 21.3 8.46938C21.3 7.06291 20.1565 5.91937 18.75 5.91937H5.40516H4.68089L5.19302 6.43151L6.16287 7.40135L6.16304 7.40152C6.33815 7.57636 6.33815 7.86239 6.16304 8.03723L6.16287 8.0374L5.19302 9.00724L5.19285 9.00741C5.01802 9.18253 4.73198 9.18253 4.55715 9.00741Z" fill="#A7ABC9" stroke="#1B1E39" stroke-width="0.6"/>
<path d="M19.4429 13.1813L19.443 13.1815L23.6778 17.4158C23.6779 17.4159 23.6779 17.416 23.678 17.416C23.7073 17.4456 23.7073 17.4931 23.678 17.5227C23.6779 17.5228 23.6779 17.5228 23.6778 17.5229L19.443 21.7572L19.443 21.7572C19.2677 21.9326 18.9824 21.9326 18.807 21.7572L17.8371 20.7874C17.6609 20.6111 17.6611 20.3274 17.8371 20.1513L18.807 19.1815L19.3191 18.6694H18.5948H5.25C2.52069 18.6694 0.3 16.4487 0.3 13.7194C0.3 13.2649 0.670529 12.8944 1.125 12.8944H1.875C2.32947 12.8944 2.7 13.2649 2.7 13.7194C2.7 15.1258 3.84353 16.2694 5.25 16.2694H18.5948H19.3191L18.807 15.7572L17.8371 14.7874C17.6609 14.6111 17.6611 14.3274 17.8371 14.1513L18.807 13.1815C18.9824 13.0061 19.2681 13.0063 19.4429 13.1813Z" fill="#A7ABC9" stroke="#1B1E39" stroke-width="0.6"/>
</svg>
