<svg width="22" height="20" viewBox="0 0 22 20" fill="none" xmlns="http://www.w3.org/2000/svg">
<path fill-rule="evenodd" clip-rule="evenodd" d="M16.8711 0.156097C18.4313 0.156097 19.7135 1.36529 19.8321 2.89566C21.0813 3.24696 22 4.39553 22 5.7554V16.8729C22 18.5111 20.6673 19.8439 19.0291 19.8439H2.97095C1.33276 19.8439 0 18.5111 0 16.8729V3.12704C0 1.48886 1.33276 0.156097 2.97095 0.156097H16.8711ZM16.8712 1.54398H2.97095C2.09805 1.54398 1.38789 2.25415 1.38789 3.12704V3.24323C1.84658 2.95317 2.38929 2.7845 2.97095 2.7845H18.4164C18.2594 2.07576 17.6264 1.54398 16.8712 1.54398ZM2.97095 18.456H19.0291C19.9019 18.456 20.6121 17.7458 20.6121 16.8729V14.5374H16.1871C14.4337 14.5374 13.0071 13.1108 13.0071 11.3573C13.0071 9.60379 14.4336 8.17717 16.1871 8.17717H20.6122V5.7554C20.6122 4.8825 19.902 4.17234 19.0291 4.17234H2.97095C2.09805 4.17234 1.38789 4.8825 1.38789 5.7554V16.8729C1.38789 17.7458 2.09805 18.456 2.97095 18.456ZM16.1871 13.1495H20.6121V9.56506H16.1871C15.1989 9.56506 14.3949 10.369 14.3949 11.3573C14.3949 12.3456 15.1989 13.1495 16.1871 13.1495ZM17.1672 11.4099C17.1672 11.809 16.8438 12.1324 16.4448 12.1324C16.0458 12.1324 15.7223 11.809 15.7223 11.4099C15.7223 11.0109 16.0458 10.6875 16.4448 10.6875C16.8438 10.6875 17.1672 11.0109 17.1672 11.4099Z" fill="#A7ABC9"/>
</svg>