<svg width="22" height="20" viewBox="0 0 22 20" fill="none" xmlns="http://www.w3.org/2000/svg">
<path fill-rule="evenodd" clip-rule="evenodd" d="M16.8711 0.156128C18.4313 0.156128 19.7135 1.36532 19.8321 2.89569C21.0813 3.247 22 4.39556 22 5.75543V16.873C22 18.5111 20.6673 19.8439 19.0291 19.8439H2.97095C1.33276 19.8439 0 18.5111 0 16.873V3.12707C0 1.48889 1.33276 0.156128 2.97095 0.156128H16.8711ZM16.8712 1.54401H2.97095C2.09805 1.54401 1.38789 2.25418 1.38789 3.12707V3.24327C1.84658 2.9532 2.38929 2.78453 2.97095 2.78453H18.4164C18.2594 2.07579 17.6264 1.54401 16.8712 1.54401ZM2.97095 18.456H19.0291C19.9019 18.456 20.6121 17.7459 20.6121 16.873V14.5375H16.1871C14.4337 14.5375 13.0071 13.1108 13.0071 11.3573C13.0071 9.60382 14.4336 8.1772 16.1871 8.1772H20.6122V5.75543C20.6122 4.88253 19.902 4.17237 19.0291 4.17237H2.97095C2.09805 4.17237 1.38789 4.88253 1.38789 5.75543V16.873C1.38789 17.7459 2.09805 18.456 2.97095 18.456ZM16.1871 13.1496H20.6121V9.56509H16.1871C15.1989 9.56509 14.3949 10.3691 14.3949 11.3573C14.3949 12.3456 15.1989 13.1496 16.1871 13.1496ZM17.1672 11.41C17.1672 11.809 16.8438 12.1325 16.4448 12.1325C16.0458 12.1325 15.7223 11.809 15.7223 11.41C15.7223 11.011 16.0458 10.6875 16.4448 10.6875C16.8438 10.6875 17.1672 11.011 17.1672 11.41Z" fill="url(#paint0_linear)"/>
<defs>
<linearGradient id="paint0_linear" x1="90.5" y1="-48.5" x2="4" y2="20" gradientUnits="userSpaceOnUse">
<stop stop-color="#4063DD"/>
<stop offset="1" stop-color="#7896FF"/>
</linearGradient>
</defs>
</svg>
